<svg width="17" height="17" viewBox="0 0 17 17" fill="none" xmlns="http://www.w3.org/2000/svg">
<g id="icon/communication/location_on_24px">
<path id="icon/communication/location_on_24px_2" fill-rule="evenodd" clip-rule="evenodd" d="M3.54166 6.5627C3.54166 3.82145 5.75874 1.60437 8.49999 1.60437C11.2412 1.60437 13.4583 3.82145 13.4583 6.5627C13.4583 9.51645 10.3275 13.5894 9.04541 15.1406C8.76207 15.4806 8.24499 15.4806 7.96166 15.1406C6.67249 13.5894 3.54166 9.51645 3.54166 6.5627ZM6.72916 6.5627C6.72916 7.5402 7.52249 8.33354 8.49999 8.33354C9.47749 8.33354 10.2708 7.5402 10.2708 6.5627C10.2708 5.5852 9.47749 4.79187 8.49999 4.79187C7.52249 4.79187 6.72916 5.5852 6.72916 6.5627Z" fill="#4D194D"/>
</g>
</svg>
