<svg width="132" height="132" viewBox="0 0 132 132" fill="none" xmlns="http://www.w3.org/2000/svg">
<path d="M41.3112 68.307C41.6322 65.4448 39.2443 62.6491 35.2261 60.5797C35.3901 59.8981 35.5336 59.2247 35.6262 58.5719C36.1787 54.6707 35.3333 51.7765 33.2488 50.4235C32.6228 50.0166 31.9047 49.7652 31.1134 49.6765C29.0234 49.4421 26.5038 50.3801 23.943 52.1837C21.5845 50.322 19.21 49.1531 17.11 48.9176C15.7166 48.7613 14.502 49.0177 13.5011 49.6776C11.231 51.1756 10.5537 54.492 11.3132 58.5711C7.84901 59.7897 5.58806 61.7805 5.30891 64.2698C4.9911 67.104 7.32552 69.8734 11.2739 71.9382C11.2304 72.1779 11.1786 72.4234 11.1448 72.6594C10.5918 76.561 11.4364 79.4551 13.5204 80.8093C14.1476 81.2166 14.8665 81.4674 15.6579 81.5562C18.0692 81.8266 21.055 80.5425 24.0128 78.1577C26.0365 79.5829 28.0413 80.4761 29.8441 80.6782C31.2379 80.8345 32.4519 80.5793 33.4537 79.9179C35.1888 78.7732 35.988 76.5593 35.9323 73.7611C39.036 72.5282 41.0497 70.6395 41.3112 68.307ZM30.9296 51.3151C31.4633 51.375 31.9415 51.5396 32.3516 51.8056C33.8455 52.7756 34.4437 55.1575 33.9929 58.3397C33.9216 58.8381 33.8214 59.3495 33.7041 59.8674C32.542 59.3705 31.2817 58.927 29.9274 58.5551C28.4613 56.5284 26.8628 54.7437 25.2289 53.2735C27.3155 51.8623 29.3141 51.134 30.9296 51.3151ZM29.4038 72.4577C29.578 72.5161 29.7585 72.5607 29.949 72.582C31.3797 72.7425 32.6684 71.7121 32.8287 70.2831C32.9168 69.4973 32.6386 68.7628 32.1406 68.2257C32.3536 67.8429 32.5602 67.4609 32.7571 67.0779C33.5329 69.0608 34.0304 70.9534 34.2184 72.6289C32.5701 73.1377 30.6253 73.4722 28.5118 73.6071C28.8128 73.2348 29.1118 72.8519 29.4038 72.4577ZM30.6927 67.4379C30.6378 67.4285 30.5859 67.4081 30.5299 67.4018C29.0992 67.2414 27.8097 68.2716 27.6492 69.7023C27.5769 70.3473 27.7564 70.9572 28.0952 71.4546C27.5136 72.2345 26.9135 72.9757 26.2993 73.6701C25.0684 73.6649 23.801 73.6014 22.5059 73.4562C21.9846 73.3978 21.4716 73.3264 20.9636 73.2476C20.1952 72.4185 19.4447 71.5217 18.7249 70.5635C18.9324 70.274 19.0791 69.9339 19.1217 69.554C19.2547 68.368 18.4015 67.2985 17.2152 67.1655C16.9645 67.1374 16.7226 67.1629 16.491 67.2156C16.0827 66.5216 15.7108 65.8277 15.3651 65.1362C15.9442 63.9814 16.5977 62.8252 17.3357 61.6874C17.9715 60.7077 18.6463 59.7836 19.3414 58.9096C20.1636 58.8892 21.0112 58.9065 21.8711 58.9486C22.1293 59.7229 22.8115 60.3196 23.6761 60.4166C24.5563 60.5153 25.3695 60.0693 25.7857 59.3487C26.873 59.5229 27.9243 59.7428 28.9322 60.0029C29.1222 60.2738 29.3121 60.5462 29.4961 60.8261C30.4255 62.2352 31.2282 63.6678 31.8988 65.0794C31.5384 65.8645 31.1309 66.6517 30.6927 67.4379ZM24.7671 75.2816C24.4961 75.5461 24.2243 75.8016 23.9521 76.0466C23.5952 75.7619 23.2389 75.4626 22.8817 75.1439C23.5189 75.2064 24.1466 75.2517 24.7671 75.2816ZM16.7345 71.46C16.9349 71.4825 17.1302 71.4679 17.3201 71.4365C17.6474 71.8775 17.9801 72.307 18.3194 72.7234C16.4265 72.2746 14.6832 71.6893 13.155 71.0043C13.4684 69.7164 13.9162 68.3819 14.4896 67.0259C14.7013 67.4102 14.9118 67.7944 15.1416 68.1798C14.9788 68.4435 14.8639 68.7426 14.8269 69.0723C14.6948 70.2574 15.5487 71.327 16.7345 71.46ZM14.491 63.2561C13.9756 62.0356 13.5721 60.8463 13.2699 59.7089C14.456 59.4024 15.7661 59.179 17.164 59.0465C16.7515 59.6107 16.3441 60.1874 15.9529 60.7896C15.4253 61.6034 14.9427 62.4289 14.491 63.2561ZM27.3975 57.9664C26.9383 57.8768 26.4758 57.7893 26.0014 57.7142C25.779 56.8795 25.0698 56.2243 24.1584 56.1221C23.235 56.0185 22.3884 56.5167 21.9934 57.3004C21.5737 57.2784 21.1543 57.2585 20.7434 57.2518C21.7709 56.1197 22.827 55.1265 23.8785 54.283C25.0778 55.3367 26.2682 56.5778 27.3975 57.9664ZM31.3963 60.7518C32.0505 60.9803 32.677 61.224 33.2717 61.4839C33.1146 62.0031 32.9351 62.5274 32.7364 63.0569C32.3313 62.2904 31.8764 61.5208 31.3963 60.7518ZM14.4106 51.054C15.0808 50.6115 15.9276 50.4443 16.927 50.5564C18.6213 50.7464 20.5858 51.7028 22.5781 53.2168C21.201 54.3487 19.835 55.7211 18.5356 57.2837C16.4866 57.3772 14.5887 57.6558 12.9024 58.0946C12.3008 54.7891 12.7504 52.1489 14.4106 51.054ZM6.94766 64.4536C7.14869 62.6608 8.94395 61.1809 11.6777 60.1984C12.098 61.7789 12.7157 63.4443 13.5232 65.1448C12.7059 66.8769 12.075 68.5984 11.6433 70.2555C8.57044 68.5764 6.71984 66.4852 6.94766 64.4536ZM15.8418 79.9157C15.3078 79.8558 14.8291 79.6911 14.419 79.4256C12.9251 78.4559 12.327 76.0733 12.7783 72.8903C12.7888 72.8178 12.8076 72.7405 12.8183 72.6671C14.9413 73.5866 17.4157 74.3161 20.1347 74.7799C20.9659 75.6469 21.8144 76.4323 22.6679 77.1308C20.1826 79.0737 17.7458 80.1292 15.8418 79.9157ZM32.5451 78.5415C31.875 78.9832 31.029 79.1508 30.0279 79.0386C28.5964 78.8781 26.9725 78.1718 25.3034 77.0456C25.8861 76.5097 26.4643 75.9345 27.0347 75.3203C29.7283 75.2804 32.1968 74.9349 34.2974 74.3238C34.2555 76.2726 33.695 77.7807 32.5451 78.5415ZM35.8099 72.0353C35.5303 69.9038 34.8165 67.5203 33.7067 65.0539C34.1195 64.0963 34.4747 63.1465 34.7694 62.2101C37.9657 63.9087 39.9037 66.0474 39.671 68.123C39.4937 69.7179 38.0489 71.0638 35.8099 72.0353Z" fill="#51A3B9"/>
<path d="M49.8494 70.4936C49.9825 70.6267 50.1701 70.7538 50.4121 70.8747C50.654 70.9836 50.9747 71.0381 51.374 71.0381C52.0394 71.0381 52.59 70.8687 53.0256 70.5299C53.4732 70.179 53.6971 69.695 53.6971 69.078C53.6971 68.6303 53.5519 68.2552 53.2615 67.9527C52.9832 67.6502 52.6263 67.3719 52.1907 67.1179C51.7551 66.8638 51.2893 66.6157 50.7932 66.3737C50.2971 66.1196 49.8313 65.8232 49.3957 65.4844C48.9601 65.1456 48.5971 64.7463 48.3067 64.2866C48.0285 63.8147 47.8893 63.2339 47.8893 62.5442C47.8893 61.9514 47.9982 61.4371 48.216 61.0016C48.4338 60.566 48.7302 60.209 49.1053 59.9307C49.4925 59.6404 49.9462 59.4286 50.4665 59.2955C50.9868 59.1503 51.5494 59.0777 52.1544 59.0777C52.8925 59.0777 53.5761 59.1322 54.2053 59.2411C54.8465 59.3379 55.4213 59.4952 55.9294 59.713C55.9173 59.9549 55.8931 60.2332 55.8568 60.5478C55.8326 60.8624 55.7963 61.177 55.7479 61.4916C55.6995 61.7941 55.6451 62.0845 55.5846 62.3627C55.5362 62.6289 55.4878 62.8528 55.4394 63.0343H54.6953L53.8604 60.5478C53.7152 60.4752 53.4974 60.4087 53.207 60.3482C52.9288 60.2877 52.6384 60.2574 52.3359 60.2574C51.8277 60.2574 51.3982 60.3905 51.0473 60.6567C50.6964 60.9229 50.521 61.3101 50.521 61.8183C50.521 62.278 50.6661 62.6713 50.9565 62.998C51.2469 63.3126 51.6099 63.6029 52.0455 63.8691C52.4811 64.1353 52.953 64.4015 53.4611 64.6677C53.9814 64.9218 54.4593 65.2182 54.8949 65.557C55.3305 65.8958 55.6935 66.2951 55.9839 66.7549C56.2743 67.2025 56.4195 67.7591 56.4195 68.4246C56.4195 69.6345 56.0081 70.5723 55.1853 71.2377C54.3746 71.8911 53.1768 72.2178 51.5918 72.2178C51.2046 72.2178 50.8113 72.1936 50.4121 72.1452C50.0249 72.0968 49.6558 72.0302 49.305 71.9456C48.9541 71.8609 48.6395 71.7701 48.3612 71.6733C48.095 71.5765 47.8954 71.4737 47.7623 71.3648C47.7744 71.0865 47.8046 70.79 47.853 70.4755C47.9014 70.1488 47.9498 69.8281 47.9982 69.5136C48.0587 69.1869 48.1192 68.8783 48.1797 68.5879C48.2402 68.2976 48.3007 68.0435 48.3612 67.8257H49.1053L49.8494 70.4936ZM65.3964 70.5299C65.3117 70.7719 65.1726 70.9957 64.979 71.2014C64.7854 71.395 64.5494 71.5705 64.2711 71.7278C64.005 71.8851 63.6964 72.006 63.3455 72.0907C63.0067 72.1754 62.6498 72.2178 62.2747 72.2178C61.4762 72.2178 60.7865 72.1089 60.2057 71.8911C59.637 71.6612 59.1652 71.3406 58.7901 70.9292C58.415 70.5057 58.1367 70.0036 57.9552 69.4228C57.7737 68.8299 57.683 68.1766 57.683 67.4627C57.683 65.926 58.1004 64.7524 58.9353 63.9417C59.7822 63.119 60.9801 62.7076 62.5288 62.7076C63.1217 62.7076 63.6662 62.7741 64.1622 62.9072C64.6583 63.0282 65.0697 63.1734 65.3964 63.3428C65.3722 63.5485 65.3359 63.7784 65.2875 64.0325C65.2512 64.2745 65.2028 64.5225 65.1423 64.7766C65.0939 65.0186 65.0334 65.2606 64.9608 65.5026C64.8882 65.7325 64.8156 65.926 64.743 66.0833H63.8537L63.0914 63.9236C63.0067 63.8631 62.916 63.8207 62.8192 63.7965C62.7224 63.7602 62.5772 63.7421 62.3836 63.7421C62.069 63.7421 61.7968 63.8026 61.5669 63.9236C61.337 64.0325 61.1374 64.2261 60.968 64.5044C60.8107 64.7826 60.6897 65.1517 60.605 65.6115C60.5324 66.0712 60.4961 66.6399 60.4961 67.3175C60.4961 67.8136 60.5505 68.2734 60.6594 68.6968C60.7683 69.1082 60.9317 69.4712 61.1495 69.7858C61.3794 70.0883 61.6637 70.3303 62.0025 70.5118C62.3413 70.6812 62.7406 70.7659 63.2003 70.7659C63.6238 70.7659 63.9929 70.7054 64.3074 70.5844C64.622 70.4634 64.8882 70.3182 65.106 70.1488L65.3964 70.5299ZM71.4832 72H66.474V71.2922C66.6555 71.1954 66.843 71.1167 67.0366 71.0562C67.2302 70.9836 67.442 70.9171 67.6719 70.8566V64.214L66.474 64.0688V63.361C66.6555 63.2884 66.8793 63.2158 67.1455 63.1432C67.4238 63.0706 67.7142 63.0101 68.0167 62.9617C68.3192 62.9012 68.6156 62.8528 68.906 62.8165C69.1964 62.7681 69.4505 62.7318 69.6683 62.7076H70.2854V70.8566C70.5273 70.9171 70.7451 70.9836 70.9387 71.0562C71.1323 71.1167 71.3138 71.1954 71.4832 71.2922V72ZM67.3633 59.9489C67.3633 59.5254 67.5085 59.1927 67.7989 58.9507C68.0893 58.7087 68.4644 58.5877 68.9242 58.5877C69.3839 58.5877 69.759 58.7087 70.0494 58.9507C70.3398 59.1927 70.485 59.5254 70.485 59.9489C70.485 60.3603 70.3398 60.687 70.0494 60.929C69.759 61.1709 69.3839 61.2919 68.9242 61.2919C68.4644 61.2919 68.0893 61.1709 67.7989 60.929C67.5085 60.687 67.3633 60.3603 67.3633 59.9489ZM80.758 70.4755C80.6612 70.6812 80.5039 70.8929 80.2862 71.1107C80.0805 71.3164 79.8203 71.5039 79.5057 71.6733C79.2033 71.8306 78.8463 71.9577 78.4349 72.0544C78.0356 72.1633 77.6001 72.2178 77.1282 72.2178C76.378 72.2178 75.7125 72.1089 75.1318 71.8911C74.551 71.6612 74.067 71.3406 73.6798 70.9292C73.2926 70.5057 72.9962 70.0036 72.7905 69.4228C72.5969 68.842 72.5001 68.1887 72.5001 67.4627C72.5001 65.9139 72.9055 64.7342 73.7161 63.9236C74.5268 63.1129 75.652 62.7076 77.0919 62.7076C77.709 62.7076 78.2837 62.7923 78.8161 62.9617C79.3605 63.1311 79.8082 63.4094 80.1591 63.7965C80.5221 64.1837 80.7701 64.6919 80.9032 65.3211C81.0484 65.9502 81.0424 66.7186 80.8851 67.626H75.3133C75.3254 68.5819 75.5674 69.3442 76.0392 69.9128C76.5232 70.4815 77.231 70.7659 78.1627 70.7659C78.562 70.7659 78.9734 70.7054 79.3968 70.5844C79.8324 70.4634 80.1712 70.3061 80.4132 70.1125L80.758 70.4755ZM77.0193 63.7421C76.7773 63.7421 76.5595 63.7844 76.3659 63.8691C76.1844 63.9538 76.0211 64.1111 75.8759 64.341C75.7428 64.5588 75.6339 64.8613 75.5492 65.2485C75.4645 65.6236 75.404 66.1015 75.3677 66.6823H78.2897C78.3744 65.7385 78.32 65.0125 78.1264 64.5044C77.9328 63.9962 77.5638 63.7421 77.0193 63.7421ZM93.156 72H88.3464V71.2922C88.5037 71.2075 88.6549 71.1349 88.8001 71.0744C88.9574 71.0018 89.1389 70.9292 89.3446 70.8566V66.5915C89.3446 65.8293 89.2357 65.2364 89.0179 64.8129C88.8001 64.3773 88.413 64.1595 87.8564 64.1595C87.3966 64.1595 86.9973 64.3108 86.6585 64.6133C86.3318 64.9036 86.0838 65.3029 85.9144 65.8111V70.8566C86.108 70.905 86.2774 70.9655 86.4226 71.0381C86.5799 71.0986 86.7432 71.1833 86.9126 71.2922V72H82.1031V71.2922C82.4056 71.1349 82.8048 70.9897 83.3009 70.8566V64.214L82.1031 64.0688V63.361C82.2604 63.2884 82.4661 63.2218 82.7201 63.1613C82.9742 63.0887 83.2465 63.0222 83.5369 62.9617C83.8393 62.9012 84.1418 62.8528 84.4443 62.8165C84.7589 62.7681 85.0432 62.7318 85.2973 62.7076H85.9144V64.577H85.9326C86.1866 64.0688 86.5678 63.6332 87.076 63.2702C87.5841 62.8951 88.2012 62.7076 88.9272 62.7076C89.3991 62.7076 89.8226 62.7681 90.1976 62.8891C90.5727 62.998 90.8873 63.1976 91.1414 63.488C91.4076 63.7784 91.6072 64.1716 91.7403 64.6677C91.8855 65.1517 91.9581 65.7688 91.9581 66.5189V70.8566C92.4421 70.9413 92.8414 71.0865 93.156 71.2922V72ZM93.5109 63.361C93.9706 63.0706 94.4546 62.8649 94.9628 62.7439V61.2738C95.0354 61.2012 95.1564 61.1346 95.3258 61.0741C95.5073 61.0016 95.6948 60.9411 95.8884 60.8927C96.0941 60.8322 96.2938 60.7777 96.4873 60.7293C96.6809 60.6809 96.8382 60.6446 96.9592 60.6204H97.5763V62.9254H99.972V64.0688H97.5763V68.7694C97.5763 69.5196 97.667 70.0399 97.8485 70.3303C98.0421 70.6207 98.3567 70.7659 98.7923 70.7659C99.0101 70.7659 99.2521 70.7538 99.5183 70.7296C99.7966 70.6933 100.051 70.6328 100.281 70.5481L100.408 71.147C100.299 71.2559 100.135 71.3708 99.9176 71.4918C99.7119 71.6128 99.4699 71.7278 99.1916 71.8367C98.9254 71.9456 98.629 72.0363 98.3023 72.1089C97.9877 72.1815 97.6549 72.2178 97.3041 72.2178C96.5176 72.2178 95.9308 72.0121 95.5436 71.6007C95.1564 71.1893 94.9628 70.5239 94.9628 69.6043V64.0688H93.5109V63.361ZM106.187 72H101.177V71.2922C101.359 71.1954 101.546 71.1167 101.74 71.0562C101.934 70.9836 102.145 70.9171 102.375 70.8566V64.214L101.177 64.0688V63.361C101.359 63.2884 101.583 63.2158 101.849 63.1432C102.127 63.0706 102.418 63.0101 102.72 62.9617C103.023 62.9012 103.319 62.8528 103.609 62.8165C103.9 62.7681 104.154 62.7318 104.372 62.7076H104.989V70.8566C105.231 70.9171 105.448 70.9836 105.642 71.0562C105.836 71.1167 106.017 71.1954 106.187 71.2922V72ZM102.067 59.9489C102.067 59.5254 102.212 59.1927 102.502 58.9507C102.793 58.7087 103.168 58.5877 103.628 58.5877C104.087 58.5877 104.462 58.7087 104.753 58.9507C105.043 59.1927 105.188 59.5254 105.188 59.9489C105.188 60.3603 105.043 60.687 104.753 60.929C104.462 61.1709 104.087 61.2919 103.628 61.2919C103.168 61.2919 102.793 61.1709 102.502 60.929C102.212 60.687 102.067 60.3603 102.067 59.9489ZM112.467 58.3518C112.963 58.3518 113.404 58.4002 113.792 58.497C114.191 58.5817 114.493 58.6663 114.699 58.751C114.663 59.1503 114.584 59.5617 114.463 59.9852C114.342 60.4087 114.233 60.7596 114.136 61.0379H113.519L112.721 59.3137C112.406 59.3137 112.14 59.35 111.922 59.4226C111.717 59.4831 111.547 59.6101 111.414 59.8037C111.293 59.9973 111.202 60.2756 111.142 60.6386C111.081 60.9895 111.051 61.4492 111.051 62.0179V62.9254H112.975V64.0688H111.051V70.8566C111.68 70.9292 112.261 71.0744 112.793 71.2922V72H107.24V71.2922C107.615 71.0744 108.014 70.9292 108.438 70.8566V64.0688H107.058V63.361C107.482 63.0948 107.942 62.8951 108.438 62.762V62.1268C108.438 61.3766 108.54 60.7596 108.746 60.2756C108.964 59.7795 109.254 59.3923 109.617 59.114C109.98 58.8236 110.404 58.624 110.888 58.5151C111.384 58.4062 111.91 58.3518 112.467 58.3518ZM114.083 64.0688C113.902 64.0204 113.732 63.9599 113.575 63.8873C113.43 63.8147 113.279 63.73 113.121 63.6332V62.9254H117.895V63.615C117.641 63.7844 117.296 63.9357 116.86 64.0688L118.693 68.6242L119.002 69.7858H119.038L119.328 68.6061L120.744 64.0688C120.381 63.9962 120.048 63.851 119.746 63.6332V62.9254H123.249V63.6332C122.995 63.8026 122.65 63.9478 122.214 64.0688L119.256 72C118.965 72.7744 118.675 73.4035 118.385 73.8875C118.094 74.3836 117.804 74.7768 117.514 75.0672C117.223 75.3576 116.933 75.5573 116.642 75.6661C116.352 75.7871 116.062 75.8658 115.771 75.9021C115.65 75.7932 115.541 75.654 115.445 75.4847C115.348 75.3274 115.263 75.1519 115.19 74.9583C115.118 74.7768 115.057 74.5893 115.009 74.3957C114.961 74.2021 114.93 74.0206 114.918 73.8512L115.154 73.4156H117.368C117.477 73.2462 117.568 73.0648 117.641 72.8712C117.725 72.6776 117.822 72.3872 117.931 72L114.083 64.0688Z" fill="#51A3B9"/>
</svg>
