<svg width="16" height="16" viewBox="0 0 16 16" fill="none" xmlns="http://www.w3.org/2000/svg">
<g id="icon/action/query_builder_24px">
<path id="icon/action/query_builder_24px_2" fill-rule="evenodd" clip-rule="evenodd" d="M7.99333 1.33337C4.31333 1.33337 1.33333 4.32004 1.33333 8.00004C1.33333 11.68 4.31333 14.6667 7.99333 14.6667C11.68 14.6667 14.6667 11.68 14.6667 8.00004C14.6667 4.32004 11.68 1.33337 7.99333 1.33337ZM7.99999 13.3334C5.05333 13.3334 2.66666 10.9467 2.66666 8.00004C2.66666 5.05338 5.05333 2.66671 7.99999 2.66671C10.9467 2.66671 13.3333 5.05338 13.3333 8.00004C13.3333 10.9467 10.9467 13.3334 7.99999 13.3334ZM7.81333 4.66671H7.85333C8.11999 4.66671 8.33333 4.88004 8.33333 5.14671V8.17338L10.9133 9.70671C11.1467 9.84004 11.22 10.14 11.08 10.3667C10.9467 10.5934 10.6533 10.66 10.4267 10.5267L7.65999 8.86671C7.45333 8.74671 7.33333 8.52671 7.33333 8.29338V5.14671C7.33333 4.88004 7.54666 4.66671 7.81333 4.66671Z" fill="#4D194D"/>
</g>
</svg>
